<svg width="24" height="20" viewBox="0 0 24 20" fill="none" xmlns="http://www.w3.org/2000/svg">
<path d="M13.6463 19.3537C13.5999 19.3073 13.563 19.2521 13.5378 19.1914C13.5127 19.1307 13.4997 19.0657 13.4997 19C13.4997 18.9343 13.5127 18.8692 13.5378 18.8085C13.563 18.7478 13.5999 18.6927 13.6463 18.6462L21.7926 10.5L1.0001 10.5C0.867488 10.5 0.74031 10.4473 0.646543 10.3535C0.552774 10.2598 0.500097 10.1326 0.500097 9.99997C0.500097 9.86736 0.552774 9.74019 0.646543 9.64642C0.74031 9.55265 0.867488 9.49997 1.0001 9.49997L21.7926 9.49997L13.6463 1.35372C13.5999 1.30727 13.563 1.25212 13.5379 1.19142C13.5128 1.13072 13.4998 1.06567 13.4998 0.999972C13.4998 0.934275 13.5128 0.869221 13.5379 0.808524C13.563 0.747828 13.5999 0.692677 13.6463 0.646222C13.6928 0.599767 13.748 0.562917 13.8086 0.537776C13.8693 0.512634 13.9344 0.499694 14.0001 0.499694C14.0658 0.499694 14.1308 0.512634 14.1915 0.537776C14.2522 0.562917 14.3074 0.599767 14.3538 0.646222L23.3538 9.64622C23.4003 9.69266 23.4372 9.7478 23.4624 9.8085C23.4875 9.8692 23.5005 9.93427 23.5005 9.99997C23.5005 10.0657 23.4875 10.1307 23.4624 10.1914C23.4372 10.2521 23.4003 10.3073 23.3538 10.3537L14.3538 19.3537C14.3074 19.4002 14.2523 19.4371 14.1916 19.4623C14.1309 19.4874 14.0658 19.5004 14.0001 19.5004C13.9344 19.5004 13.8693 19.4874 13.8086 19.4623C13.7479 19.4371 13.6928 19.4002 13.6463 19.3537Z" fill="white"/>
</svg>
