<svg width="15" height="15" viewBox="0 0 15 15" fill="none" xmlns="http://www.w3.org/2000/svg">
<path d="M12.8868 6.14708C12.8174 5.94879 12.6319 5.81213 12.4188 5.80215H9.0684L8.00478 2.57237C7.92904 2.35584 7.71626 2.21501 7.48361 2.22745C7.25586 2.22584 7.05342 2.36975 6.98371 2.58283L5.92009 5.8126H2.58033C2.35599 5.81109 2.15584 5.95082 2.08345 6.15949C2.01106 6.36816 2.08268 6.59894 2.26124 6.73241L4.97347 8.74971L3.90985 12.0004C3.83472 12.2138 3.91067 12.4504 4.09683 12.5828C4.28299 12.7152 4.53541 12.7121 4.7182 12.5753L7.55806 10.4848L10.4086 12.5753C10.4973 12.6417 10.6055 12.6783 10.717 12.6798C10.8868 12.6821 11.0471 12.603 11.1467 12.4678C11.2462 12.3325 11.2724 12.1581 11.2169 12.0004L10.1533 8.74971L12.8123 6.72195C12.9557 6.56388 12.9853 6.3354 12.8868 6.14708Z" fill="#0F213A"/>
</svg>
